<?xml version="1.0" standalone="no"?>
<!DOCTYPE svg PUBLIC "-//W3C//DTD SVG 20010904//EN"
 "http://www.w3.org/TR/2001/REC-SVG-20010904/DTD/svg10.dtd">
<svg version="1.0" xmlns="http://www.w3.org/2000/svg"
 width="512.000000pt" height="512.000000pt" viewBox="0 0 512.000000 512.000000"
 preserveAspectRatio="xMidYMid meet">
<metadata>
Created by potrace 1.14, written by Peter Selinger 2001-2017
</metadata>
<g transform="translate(0.000000,512.000000) scale(0.100000,-0.100000)"
fill="#000000" stroke="none">
<path d="M385 5001 c-80 -20 -222 -108 -280 -172 -93 -104 -105 -251 -31 -397
21 -42 129 -199 145 -212 3 -3 35 -39 71 -80 191 -220 850 -878 1073 -1070 24
-21 37 -39 33 -49 -31 -92 -68 -238 -74 -291 -9 -85 -9 -292 1 -355 27 -171
94 -350 184 -489 l45 -69 -31 -26 c-32 -28 -40 -51 -18 -51 34 0 143 -68 211
-131 47 -44 79 -67 89 -63 8 3 45 -14 84 -39 145 -93 263 -138 478 -183 64
-13 301 -12 385 1 172 29 366 104 498 193 47 32 62 39 71 29 8 -10 27 4 85 59
53 51 98 84 151 109 41 20 75 39 75 43 0 4 -14 19 -32 33 l-31 26 46 74 c25
41 60 106 78 144 50 111 75 194 104 350 13 67 13 255 0 340 -15 106 -20 126
-51 225 -13 41 -24 77 -24 81 0 3 60 59 133 125 131 117 651 632 841 833 244
259 372 438 394 554 30 154 -26 271 -176 370 -143 95 -250 116 -342 69 -92
-48 -214 -151 -362 -307 -210 -219 -360 -369 -508 -506 -69 -64 -217 -206
-330 -317 l-205 -200 -59 30 c-87 44 -224 91 -305 104 -18 3 -43 8 -55 11 -41
10 -292 12 -346 3 -30 -5 -71 -12 -90 -15 -64 -10 -203 -58 -291 -100 l-66
-32 -169 166 c-93 91 -241 234 -329 316 -163 153 -305 295 -565 563 -248 255
-381 335 -505 303z m4359 -758 c-283 -350 -577 -653 -969 -997 l-110 -96 -17
22 c-10 13 -17 26 -15 29 1 3 38 37 82 75 349 301 657 598 981 949 217 235
225 238 48 18z m-4198 -149 c105 -113 346 -353 494 -491 143 -134 427 -386
441 -391 5 -2 2 -17 -7 -33 -16 -32 -19 -31 -60 6 -6 6 -44 39 -85 75 -400
352 -679 642 -973 1010 l-108 135 99 -101 c54 -55 144 -150 199 -210z"/>
<path d="M1414 1696 c-6 -6 -54 -51 -107 -101 -53 -49 -97 -93 -97 -96 0 -4
24 -15 53 -25 28 -9 107 -44 174 -77 l122 -60 87 74 c48 42 90 81 92 88 6 17
-94 109 -159 148 -69 41 -150 65 -165 49z"/>
<path d="M3648 1694 c-25 -6 -71 -26 -101 -43 -57 -32 -167 -130 -167 -148 0
-5 25 -32 56 -59 31 -27 70 -61 86 -76 17 -16 34 -28 39 -28 5 0 62 26 126 59
65 32 142 66 171 76 28 9 52 20 52 24 0 4 -37 41 -82 82 -44 41 -93 86 -107
100 -25 24 -28 25 -73 13z"/>
<path d="M1049 1349 c-56 -54 -100 -101 -97 -104 3 -3 37 -14 76 -25 39 -11
117 -40 173 -65 57 -25 106 -44 110 -43 22 9 199 182 192 189 -21 21 -218 110
-281 128 l-71 20 -102 -100z"/>
<path d="M3945 1443 c-78 -17 -266 -99 -318 -138 -18 -13 -16 -16 25 -52 23
-21 68 -62 100 -91 l56 -54 119 50 c65 28 145 57 177 65 32 9 61 18 64 22 5 5
-197 208 -202 204 0 -1 -10 -3 -21 -6z"/>
<path d="M770 1076 c-63 -63 -116 -118 -118 -124 -1 -5 29 -20 69 -32 39 -13
112 -48 161 -77 l90 -54 91 89 c51 49 117 112 147 140 l55 51 -75 34 c-98 46
-188 75 -253 82 l-52 6 -115 -115z"/>
<path d="M4110 1170 c-69 -18 -206 -72 -234 -93 -16 -12 -12 -18 41 -66 32
-30 98 -92 147 -139 74 -72 91 -84 105 -74 65 47 176 105 233 123 37 11 68 24
68 28 0 4 -52 59 -115 122 -130 128 -131 128 -245 99z"/>
<path d="M450 763 c-89 -87 -129 -134 -120 -137 8 -2 33 -8 55 -12 22 -4 42
-8 45 -9 3 -1 24 -7 48 -14 23 -6 80 -28 125 -47 l82 -34 120 120 120 121 -25
19 c-39 30 -150 86 -205 103 -106 32 -96 37 -245 -110z"/>
<path d="M4460 884 c-60 -15 -200 -82 -240 -113 l-25 -20 120 -120 120 -120
100 40 c55 22 132 47 170 56 39 8 76 17 84 19 10 3 -34 52 -124 139 -77 74
-142 135 -145 134 -3 0 -30 -7 -60 -15z"/>
<path d="M216 538 l-26 -33 42 -35 c42 -35 107 -101 171 -175 l35 -40 47 50
c25 28 71 76 102 107 l57 57 -58 26 c-89 39 -214 72 -283 74 -58 1 -62 0 -87
-31z"/>
<path d="M4671 544 c-46 -13 -108 -36 -139 -50 l-55 -25 59 -61 c32 -33 79
-81 103 -106 l45 -45 29 34 c60 69 124 135 171 175 l47 41 -26 32 c-25 29 -31
31 -88 30 -35 0 -98 -11 -146 -25z"/>
<path d="M29 479 c-48 -48 -10 -143 101 -250 86 -84 166 -130 233 -136 52 -4
70 7 70 44 0 41 -50 111 -158 219 -121 123 -204 165 -246 123z"/>
<path d="M5017 486 c-55 -20 -104 -57 -178 -134 -153 -159 -191 -241 -121
-259 67 -16 175 38 279 143 105 104 140 197 93 244 -23 23 -23 23 -73 6z"/>
</g>
</svg>
